<svg width="96" height="96" xmlns="http://www.w3.org/2000/svg" xmlns:xlink="http://www.w3.org/1999/xlink" xml:space="preserve" overflow="hidden"><g transform="translate(-789 -551)"><path d="M867 616C866.9 613.5 865.7 611 863.6 609.3 860.9 607 857.2 604.9 852.2 602.9 855 602.2 857.4 600.7 857.5 600.6 857.8 600.4 857.9 600.2 858 599.9 858 599.6 857.9 599.3 857.7 599.1 857.7 599.1 854.6 596.1 854.3 592.9 854.2 591.6 854.7 588.9 855.3 586 856 582.3 856.8 578.1 856.8 574.7 856.8 569.8 855.5 567.1 852.3 565.2 850.9 564.4 848.5 564.7 847.3 564.9 846.4 563.7 844.1 561.3 839.2 559.7 833.9 558.3 828.4 559 823.6 561.7 819.3 564.5 817.5 568.9 817.5 576.8 817.5 580.7 817.7 584.1 817.9 587.1 818.1 590.5 818.3 593.2 818 595 817.8 596.8 816.8 598.4 815.8 599.7 815.6 599.9 815.6 600.2 815.6 600.5 815.6 600.8 815.8 601 816.1 601.2 816.3 601.3 818.5 602.5 821.3 603.1 816.4 605 812.8 607.1 810.2 609.3 808.3 611 807.1 613.5 807 616L807 633 807.4 633.3C812.1 636.4 824.7 638 837.3 638 849.9 638 862.4 636.4 866.6 633.3L867 633 867 616ZM825.8 603.4 827.5 602.7C827.6 602.7 827.7 602.6 827.8 602.6 827.9 602.6 827.9 602.6 828 602.5L828 602.5C829.3 601.8 830 600.5 830 599L830 597.2C832.1 598.3 834.5 598.9 837 598.9 839.5 598.9 841.9 598.3 844 597.2L844 599C844 600.5 844.8 601.8 846.1 602.5L846.1 602.5C846.1 602.5 846.2 602.5 846.2 602.5 846.3 602.6 846.4 602.6 846.5 602.7L848.2 603.4 848 604.2C845.8 605.9 841.6 607 837 607 832.4 607 828.1 605.9 826 604.2L825.8 603.4ZM837 597C829.8 597 824 591.2 824 584L824 580C828 579.8 833.5 578.3 836.6 577L837.6 576.5C840.5 575 842.5 574.1 845.1 571.6 845.3 572.8 845.9 576.7 846.8 578.4 847.8 580.1 848.9 580.9 849.6 581.4 849.7 581.5 849.8 581.5 849.9 581.6L849.9 584C850 591.2 844.2 597 837 597ZM852 581C852 580.8 851.9 580.5 851.7 580.3 851.5 580 851.1 579.8 850.8 579.6 850.1 579.2 849.3 578.6 848.6 577.3 848 576.3 847.4 573.5 847.1 571.2 847 570.8 846.8 570.4 846.6 570.1 846.2 569.7 845.7 569.5 845.2 569.5 845.2 569.5 845.2 569.5 845.2 569.5 844.7 569.5 844.2 569.7 843.9 570 841.4 572.2 839.7 573.1 836.8 574.5L835.8 575C832.7 576.4 826.8 577.9 823 577.9 822.4 577.9 822 578.3 822 578.9 822 578.9 822 578.9 822 578.9L822 578.9 822 583.9C822 588.8 824.4 593.1 828 595.9L828 599C828 599.8 827.5 600.5 826.8 600.8 824.1 602 820.1 600.6 818.3 599.8 819.2 598.5 819.9 597 820.2 595.2 820.5 593.2 820.3 590.4 820.1 586.9 819.9 583.9 819.7 580.6 819.7 576.7 819.7 569.6 821.2 565.7 824.8 563.4 829.1 561 834 560.3 838.8 561.6 844.3 563.3 846.1 566.4 846.1 566.4 846.3 566.8 846.8 567 847.2 566.9 848.5 566.6 850.7 566.4 851.5 566.9 853.7 568.1 855 569.8 855 574.6 855 577.8 854.2 581.9 853.5 585.5 852.9 588.7 852.4 591.4 852.5 593 852.7 595.8 854.5 598.3 855.6 599.6 853.8 600.5 850 602.2 847.3 600.9 846.6 600.6 846.2 599.9 846.2 599.1L846.2 596C849.8 593.3 852.2 588.9 852.2 584L852 581ZM809 616C809 614 810 612.2 811.6 610.7 814.4 608.3 818.4 606.2 823.9 604.1L832.7 636C822.6 635.7 813.1 634.3 809 632L809 616ZM834.8 636 826.8 607C829.4 608.3 833.1 609 837 609 840.9 609 844.6 608.3 847.2 607L839.2 636C837.7 636.1 836.3 636 834.8 636ZM841.3 636 850.1 604.2C855.6 606.3 859.6 608.4 862.4 610.8 864 612.2 865 614 865 616L865 632C861.2 634.4 851.6 635.7 841.3 636Z" stroke="#1AA9BE" stroke-width="1.33333" fill="#1AA9BE"/></g></svg>