<svg width="96" height="96" xmlns="http://www.w3.org/2000/svg" xmlns:xlink="http://www.w3.org/1999/xlink" xml:space="preserve" overflow="hidden"><g transform="translate(-969 -551)"><path d="M997.882 581.3C998.516 581.308 999.24 581.307 1000.02 581.3 1000.18 590.129 1007.48 597.151 1016.31 596.982 1024.94 596.817 1031.89 589.821 1031.99 581.182 1032.28 580.196 1034.13 573.461 1031.91 569.202 1030.48 566.198 1027.39 564.336 1024.07 564.469 1022.43 563.175 1015.58 558.553 1005.94 563.104 998.037 566.831 997.808 575.004 997.818 576.231L996.918 580.076C996.792 580.614 997.126 581.152 997.664 581.278 997.734 581.294 997.807 581.303 997.88 581.304ZM1016 595C1008.37 594.989 1002.15 588.87 1002.01 581.238 1005.75 581.083 1010.16 580.598 1012.94 579.287 1016.57 577.573 1021.16 573.712 1022.6 572.458 1023.99 573.097 1025.21 574.036 1026.19 575.206 1027.01 576.207 1027.72 577.293 1028.31 578.445 1028.78 579.28 1029.31 580.224 1029.99 581.271 1029.83 588.89 1023.62 594.989 1016 595ZM999.794 576.558C999.814 576.472 999.823 576.383 999.82 576.295 999.81 575.969 999.638 568.283 1006.79 564.906 1009.12 563.757 1011.67 563.142 1014.26 563.106 1017.47 563.064 1020.59 564.17 1023.06 566.225 1023.29 566.44 1023.6 566.537 1023.91 566.487 1026.55 566.25 1029.04 567.708 1030.13 570.118 1031.38 572.507 1031.02 576.085 1030.58 578.407 1030.4 578.079 1030.22 577.765 1030.05 577.464 1029.4 576.19 1028.61 574.99 1027.7 573.886 1026.38 572.243 1024.62 571.014 1022.62 570.347 1022.3 570.27 1021.96 570.355 1021.72 570.574 1021.66 570.624 1016.1 575.584 1012.09 577.474 1008.83 579.011 1002.65 579.274 999.157 579.296Z" stroke="#1AA9BE" stroke-width="1.33333" fill="#1AA9BE"/><path d="M1045.53 610.525C1040.94 606.991 1035.68 604.424 1030.07 602.979 1028.78 602.592 1027.48 602.258 1026.21 601.986L1025.7 601.877 1025.32 602.23C1021.25 606 1018.48 606 1017 606 1015.52 606 1012.73 606 1008.68 602.28L1008.3 601.932 1007.8 602.038C1006.57 602.296 1005.28 602.611 1003.94 602.976 998.398 604.6 993.17 607.15 988.479 610.518 986.328 612.203 985.05 614.768 985 617.5L985 633 987 633 987 617.5C987.044 615.391 988.03 613.413 989.688 612.108 994.178 608.894 999.177 606.46 1004.48 604.908 1005.59 604.608 1006.68 604.336 1007.71 604.108 1011.6 607.527 1014.58 608 1017 608 1019.42 608 1022.38 607.521 1026.29 604.051 1027.35 604.291 1028.43 604.574 1029.51 604.899 1034.87 606.272 1039.89 608.715 1044.28 612.08 1045.95 613.385 1046.95 615.375 1047 617.5L1047 633 1049 633 1049 617.5C1048.95 614.772 1047.68 612.211 1045.53 610.525Z" stroke="#1AA9BE" stroke-width="1.33333" fill="#1AA9BE"/></g></svg>